<svg width="18" height="24" viewBox="0 0 18 24" fill="none" xmlns="http://www.w3.org/2000/svg">
<path fill-rule="evenodd" clip-rule="evenodd" d="M0 8.4375C0 3.78506 4.0374 0 9 0C13.9626 0 18 3.78506 18 8.4375C18 9.96277 17.5611 11.4576 16.7306 12.7603L9.7684 23.6582C9.63405 23.8686 9.39245 23.9981 9.1309 24H9.12495C8.86565 24 8.62455 23.8744 8.4877 23.6676L1.34345 12.8743C0.46445 11.5434 0 10.0094 0 8.4375ZM4.5 8.71875C4.5 6.23745 6.5187 4.21875 9 4.21875C11.4813 4.21875 13.5 6.23745 13.5 8.71875C13.5 11.1571 11.5451 13.2188 9 13.2188C6.48585 13.2188 4.5 11.1842 4.5 8.71875ZM5.99 8.71875C5.99 10.3771 7.33715 11.7288 9 11.7288C10.6892 11.7288 12.005 10.3529 12.005 8.71875C12.005 7.06455 10.6542 5.70875 9 5.70875C7.3458 5.70875 5.99 7.06455 5.99 8.71875Z" fill="url(#paint0_linear_1043:814)"/>
<defs>
<linearGradient id="paint0_linear_1043:814" x1="9" y1="12" x2="9" y2="29.5" gradientUnits="userSpaceOnUse">
<stop stop-color="#3874E8"/>
<stop offset="1" stop-color="#51ABFF"/>
</linearGradient>
</defs>
</svg>
