<svg width="24" height="19" viewBox="0 0 24 19" fill="none" xmlns="http://www.w3.org/2000/svg">
<path fill-rule="evenodd" clip-rule="evenodd" d="M2.25002 0.892578H21.75C22.4152 0.892578 23.0139 1.18276 23.4262 1.64322L22.0392 2.84507L12.0018 11.2182L1.96429 2.84507L0.577129 1.63956C0.989296 1.18122 1.58657 0.892578 2.25002 0.892578ZM0 3.19166V16.646C0 17.887 1.00928 18.8965 2.25002 18.8965H21.75C22.9907 18.8965 24 17.887 24 16.646V3.14308C24 3.13571 24 3.12836 23.9999 3.12101L22.5017 4.37037L12.4932 12.719C12.3518 12.8368 12.1768 12.8953 12.0018 12.8953C11.8267 12.8953 11.6517 12.8367 11.5103 12.719L1.50178 4.37037L0 3.19166Z" fill="url(#paint0_linear_1043:828)"/>
<defs>
<linearGradient id="paint0_linear_1043:828" x1="12" y1="9.89454" x2="12" y2="23.0224" gradientUnits="userSpaceOnUse">
<stop stop-color="#3874E8"/>
<stop offset="1" stop-color="#51ABFF"/>
</linearGradient>
</defs>
</svg>
