<svg width="24" height="25" viewBox="0 0 24 25" fill="none" xmlns="http://www.w3.org/2000/svg">
<path fill-rule="evenodd" clip-rule="evenodd" d="M20.3985 15.6118L23.382 18.596C24.2046 19.4187 24.2046 20.7574 23.382 21.5801L22.2971 22.6653C19.3236 25.6394 14.5115 25.6391 11.5383 22.6653L2.22457 13.3447C-0.741546 10.378 -0.741545 5.55053 2.22471 2.58369L2.52156 2.28934L8.09127 7.77715L8.79232 7.06404L3.22548 1.59138L3.31183 1.50576C4.13219 0.685222 5.47062 0.685222 6.29318 1.50791L9.27593 4.48193C10.1071 5.3132 10.0957 6.64778 9.27673 7.46686L7.92059 8.82329C7.29588 9.44813 7.29598 10.4593 7.92059 11.084L13.7987 16.9684C14.4216 17.5913 15.4356 17.5915 16.0588 16.9682L16.8307 16.1961L22.3999 21.6834L23.1009 20.9703L17.5361 15.4996C18.364 14.791 19.6152 14.8283 20.3985 15.6118Z" fill="url(#paint0_linear_1043:837)"/>
<defs>
<linearGradient id="paint0_linear_1043:837" x1="1.5" y1="12.8932" x2="31.5018" y2="24.8913" gradientUnits="userSpaceOnUse">
<stop stop-color="#3874E8"/>
<stop offset="1" stop-color="#51ABFF"/>
</linearGradient>
</defs>
</svg>
