<svg width="8" height="17" viewBox="0 0 8 17" fill="none" xmlns="http://www.w3.org/2000/svg">
<path fill-rule="evenodd" clip-rule="evenodd" d="M1.6378 8.67629V16.4118C1.63781 16.4653 1.65904 16.5165 1.69683 16.5543C1.73461 16.5921 1.78585 16.6133 1.83928 16.6133H4.71191C4.73837 16.6133 4.76457 16.6081 4.78901 16.598C4.81346 16.5878 4.83567 16.573 4.85438 16.5543C4.87309 16.5356 4.88793 16.5134 4.89805 16.4889C4.90818 16.4645 4.91339 16.4383 4.91339 16.4118V8.55027H6.99596C7.04645 8.55028 7.09511 8.53133 7.1323 8.49716C7.16948 8.463 7.19249 8.41612 7.19675 8.36581L7.39701 5.99711C7.39936 5.96932 7.39592 5.94134 7.3869 5.91494C7.37788 5.88854 7.36347 5.86431 7.3446 5.84377C7.32572 5.82323 7.30279 5.80683 7.27724 5.79561C7.2517 5.7844 7.22411 5.77861 7.19621 5.77862H4.91339V4.09808C4.91339 3.90894 4.98853 3.72755 5.12227 3.59381C5.25601 3.46007 5.4374 3.38493 5.62654 3.38493H7.23162C7.28505 3.38493 7.33629 3.3637 7.37408 3.32591C7.41186 3.28813 7.43309 3.23689 7.4331 3.18345V0.81476C7.43309 0.761326 7.41186 0.710083 7.37408 0.6723C7.33629 0.634517 7.28505 0.613288 7.23162 0.613281H4.51953C3.75525 0.613281 3.02227 0.916891 2.48184 1.45732C1.94141 1.99775 1.6378 2.73073 1.6378 3.49501V5.77862H0.201479C0.148038 5.77863 0.0967885 5.79986 0.0590045 5.83766C0.0212205 5.87545 -3.89092e-06 5.9267 5.35026e-10 5.98014V8.34884C1.29683e-05 8.40227 0.0212459 8.4535 0.059029 8.49128C0.0968122 8.52905 0.148052 8.55027 0.201479 8.55027H1.6378V8.67629Z" fill="white"/>
</svg>
