<svg width="17" height="17" viewBox="0 0 17 17" fill="none" xmlns="http://www.w3.org/2000/svg">
<path d="M12.6426 3.559C12.4566 3.559 12.2747 3.61417 12.12 3.71753C11.9654 3.82088 11.8448 3.96779 11.7736 4.13966C11.7024 4.31153 11.6838 4.50066 11.7201 4.68311C11.7564 4.86557 11.846 5.03317 11.9775 5.16472C12.1091 5.29626 12.2767 5.38585 12.4591 5.42214C12.6416 5.45843 12.8307 5.43981 13.0026 5.36862C13.1744 5.29743 13.3213 5.17687 13.4247 5.02219C13.5281 4.86752 13.5832 4.68566 13.5832 4.49963C13.5832 4.25016 13.4841 4.0109 13.3077 3.8345C13.1313 3.6581 12.8921 3.559 12.6426 3.559ZM8.46081 4.76526C7.67932 4.76525 6.91537 4.99698 6.26558 5.43115C5.61579 5.86531 5.10934 6.48242 4.81027 7.20442C4.5112 7.92642 4.43294 8.72089 4.5854 9.48737C4.73786 10.2538 5.11418 10.9579 5.66677 11.5105C6.21936 12.0631 6.92341 12.4394 7.68989 12.5919C8.45636 12.7444 9.25084 12.6661 9.97284 12.367C10.6948 12.068 11.312 11.5615 11.7461 10.9118C12.1803 10.262 12.412 9.49803 12.412 8.71654C12.4108 7.66897 11.9942 6.66465 11.2534 5.9239C10.5127 5.18316 9.50838 4.76647 8.46081 4.76526ZM8.46081 11.2476C7.96021 11.2476 7.47085 11.0992 7.05461 10.8211C6.63836 10.543 6.31394 10.1477 6.12236 9.68521C5.93078 9.22272 5.88064 8.71381 5.97829 8.22283C6.07594 7.73184 6.317 7.28084 6.67097 6.92686C7.02494 6.57287 7.47593 6.3318 7.96691 6.23413C8.45789 6.13646 8.96681 6.18658 9.4293 6.37814C9.8918 6.56971 10.2871 6.89412 10.5652 7.31035C10.8434 7.72658 10.9918 8.21594 10.9918 8.71654C10.991 9.38758 10.7241 10.0309 10.2497 10.5054C9.77517 10.9799 9.13185 11.2468 8.46081 11.2476ZM16.4336 5.43257C16.4336 4.79968 16.3089 4.17298 16.0667 3.58827C15.8245 3.00355 15.4695 2.47227 15.022 2.02476C14.5744 1.57725 14.0431 1.22227 13.4584 0.980085C12.8737 0.737903 12.247 0.613263 11.6141 0.613281L5.25317 0.613281C4.62027 0.613263 3.99357 0.737903 3.40884 0.980085C2.82411 1.22227 2.29281 1.57725 1.84527 2.02476C1.39773 2.47227 1.04272 3.00355 0.800505 3.58827C0.558289 4.17298 0.433612 4.79968 0.433594 5.43257L0.433594 11.794C0.433612 12.4269 0.558289 13.0536 0.800505 13.6383C1.04272 14.223 1.39773 14.7543 1.84527 15.2018C2.29281 15.6493 2.82411 16.0043 3.40884 16.2465C3.99357 16.4887 4.62027 16.6133 5.25317 16.6133H11.6141C12.247 16.6133 12.8737 16.4887 13.4584 16.2465C14.0431 16.0043 14.5744 15.6493 15.022 15.2018C15.4695 14.7543 15.8245 14.223 16.0667 13.6383C16.3089 13.0536 16.4336 12.4269 16.4336 11.794V5.43257ZM14.9242 11.794C14.9242 12.6719 14.5754 13.5138 13.9546 14.1345C13.3339 14.7552 12.4919 15.1039 11.6141 15.1039H5.25317C4.81849 15.1039 4.38807 15.0183 3.98647 14.852C3.58488 14.6856 3.21997 14.4418 2.9126 14.1345C2.60523 13.8271 2.3614 13.4623 2.19504 13.0607C2.02869 12.6591 1.94306 12.2287 1.94304 11.794V5.43257C1.94306 4.9979 2.02869 4.56748 2.19504 4.16589C2.3614 3.76431 2.60523 3.39943 2.9126 3.09207C3.21997 2.78472 3.58488 2.54092 3.98647 2.37459C4.38807 2.20826 4.81849 2.12267 5.25317 2.12268H11.6141C12.4919 2.12266 13.3339 2.47136 13.9546 3.09208C14.5754 3.71281 14.9242 4.55471 14.9242 5.43257V11.794Z" fill="white"/>
</svg>
