<svg width="16" height="14" viewBox="0 0 16 14" fill="none" xmlns="http://www.w3.org/2000/svg">
<path d="M15.9396 2.05432C15.4228 2.27665 14.8796 2.4318 14.3233 2.51598C14.5838 2.47227 14.9676 2.0008 15.121 1.81019C15.3533 1.52954 15.532 1.20862 15.6482 0.863492C15.6557 0.841326 15.6665 0.820155 15.6715 0.797316C15.6724 0.793192 15.6731 0.789079 15.6733 0.785031C15.6749 0.755361 15.6417 0.736372 15.6121 0.738858C15.5972 0.740112 15.5828 0.745012 15.5702 0.753129C14.9634 1.07696 14.3185 1.32372 13.6506 1.48769C13.6274 1.49495 13.6027 1.49551 13.5793 1.4893C13.5559 1.48308 13.5347 1.47035 13.5182 1.45259C13.4667 1.39116 13.4106 1.3338 13.3504 1.28103C13.0731 1.04225 12.7591 0.849829 12.4204 0.711183C11.9683 0.528155 11.4808 0.44965 10.9941 0.481534C10.5214 0.513511 10.0605 0.643678 9.64094 0.863728C9.22015 1.08354 8.84867 1.38697 8.54928 1.75541C8.2387 2.13746 8.01611 2.58325 7.89735 3.06108C7.79546 3.51389 7.78372 3.98233 7.8628 4.43967C7.87316 4.51668 7.86637 4.52709 7.79656 4.51668C5.15978 4.12432 2.9741 3.18073 1.19983 1.15891C1.12283 1.07115 1.08098 1.07115 1.01791 1.1657C0.241501 2.32943 0.618212 4.19921 1.58811 5.11806C1.70546 5.22925 1.61758 5.42891 1.46039 5.3911C1.20455 5.32956 0.956203 5.23805 0.720614 5.11806C0.643612 5.06937 0.604934 5.09729 0.598145 5.1847C0.593173 5.31101 0.600144 5.43751 0.618967 5.56252C0.696686 6.1563 0.930635 6.71882 1.29691 7.19259C1.66319 7.66637 2.14867 8.03442 2.70376 8.25915C2.79018 8.29662 2.7819 8.44214 2.688 8.44965C2.41847 8.4712 2.14698 8.46375 1.87821 8.42714C1.78723 8.40958 1.75247 8.4551 1.78723 8.54251C2.00092 9.10194 2.35412 9.59742 2.81326 9.98188C3.27239 10.3663 3.82222 10.627 4.41048 10.7391C4.51961 10.7582 4.62878 10.7597 4.73814 10.7815C4.75243 10.7843 4.75438 10.7967 4.7464 10.8089C4.45182 11.258 3.43058 11.5922 2.95498 11.7584C2.08376 12.0692 1.15563 12.188 0.234208 12.1066C0.0878987 12.0851 0.0572186 12.0867 0.0175356 12.1066C-0.0226001 12.1314 0.0124557 12.1663 0.0594316 12.2044C0.244971 12.3268 0.433729 12.4354 0.626109 12.5403C1.20402 12.8484 1.81386 13.0923 2.44479 13.2678C5.71328 14.1704 9.39495 13.5071 11.8491 11.0688C13.7763 9.15401 14.4517 6.5134 14.4517 3.86948C14.4517 3.76597 14.574 3.70883 14.6467 3.65426C15.1339 3.27504 15.5631 2.82663 15.9206 2.32325C15.9763 2.25031 16.0043 2.15995 15.9995 2.0683V2.05432C15.9995 2.01207 16.0046 2.02475 15.9396 2.05432Z" fill="white"/>
</svg>
